<svg xmlns="http://www.w3.org/2000/svg" width="13in" height="18in" version="1.1" style="shape-rendering:geometricPrecision; text-rendering:geometricPrecision; image-rendering:optimizeQuality; fill-rule:evenodd; clip-rule:evenodd" viewBox="0 0 13000 18000"> <defs> <style type="text/css">  .fil0 {fill:#030303}  </style> </defs> <g id="Layer_x0020_1"> <metadata id="CorelCorpID_0Corel-Layer"/> <g id="_1896632704"> <path class="fil0" d="M4258 10359c11,-25 34,-50 65,-53 62,-6 20,1 35,13l-100 41zm3976 -4668c-5,9 -10,18 -14,28 -5,-2 -10,-3 -16,-5 -5,26 -15,63 -29,111 -14,38 -25,76 -33,114 -124,410 -383,1179 -455,1388 -104,301 -278,182 -546,99 -99,-31 -218,-87 -310,-105 -61,30 -54,53 -131,73 -52,13 -110,31 -154,39 -73,13 -121,-6 -186,24 -81,37 -64,28 -167,26l-38 33c-10,6 -33,16 -46,23 -28,14 -54,26 -87,38 -36,13 -75,25 -102,37 -121,56 -102,97 -183,205l-121 143c-42,57 -64,229 -178,349 -55,57 -84,63 -122,142 -20,42 -24,55 -52,87 -24,27 -40,30 -58,72 6,1 12,1 19,1 -14,13 -27,27 -40,41 -8,-1 -15,-3 -18,-5 -58,46 -87,91 -152,140 -179,136 -132,44 -271,173 -42,39 -52,26 -86,53 -19,16 -47,53 -73,78 -86,80 -175,83 -82,262 99,190 189,515 -15,638 18,73 46,151 36,238 -19,23 -22,20 -36,43 -13,22 -11,29 -29,55 -84,31 -118,71 -222,65 -33,-36 -24,-52 -74,-70 -67,-25 -45,-9 -90,-66l-134 -146c13,71 64,105 81,163 -49,-25 -29,-26 -58,-45 -43,-28 -44,3 -52,-17l-63 -46c-26,-17 -20,-8 -44,-42 -36,45 2,13 -42,41 -24,-65 -44,-51 -64,-115l-74 -107 25 -54c-25,-36 -127,-209 -103,-252l64 120 42 -48c7,76 -7,20 37,58 34,29 62,91 118,130 -46,-116 -143,-268 -151,-402 35,29 36,38 56,84l130 240c-2,-62 -175,-504 -199,-560 -19,53 12,49 -15,108 -60,-27 -158,-286 -165,-334 -140,-14 -107,-165 -176,-362 -2,-1 -5,-1 -7,-2 -1,-18 -3,-37 -5,-56 0,-4 -1,-7 -1,-11 8,-4 4,15 14,-50 3,-15 3,-39 7,-59 12,-73 28,-70 1,-129 122,-48 519,-355 478,-133 98,-34 103,-102 200,-88 43,-65 80,-90 109,-142 62,-111 159,-454 202,-591 38,-12 17,8 54,-27l-242 645 -141 160c-17,127 17,411 95,474 -7,22 18,23 -9,18l21 9c-11,83 15,76 36,114l16 60 30 -8 124 291 58 -252c-103,44 -77,94 -95,143 -7,-112 26,-100 51,-184 7,-24 8,-65 12,-76 8,-21 35,-50 65,-67 -29,55 -57,76 -73,176 59,-22 25,3 63,-48 29,-39 49,-1 72,-83 1,-2 2,-6 2,-8 1,-2 2,-7 3,-9 37,-107 15,-41 36,-47l0 -28c-27,7 -15,2 -35,16 -34,24 -5,16 -54,31 63,-91 63,-29 110,-113 -61,19 -58,30 -102,48l2 -25c30,-11 62,-26 77,-54 -27,20 -23,17 -65,26 22,-22 5,-6 13,-29 -65,6 -39,21 -101,45l26 -37c27,-41 11,0 20,-52 49,32 14,19 84,-6 -2,-65 8,-51 -29,-63 9,-29 22,-55 34,-75 144,-6 180,18 326,-38 13,-20 23,20 1,-5l-11 -11c-1,-1 -6,-5 -9,-8l132 -28c-44,24 -38,3 -79,45l63 -4c29,-20 112,-47 153,-69l-39 -23c53,-18 101,-55 125,-102l-313 150c-3,2 -6,4 -9,6 -56,38 -50,21 -38,55l-232 -3 40 -63c22,-29 63,-33 103,-35 -27,26 -20,14 -55,28l-27 15c64,2 162,-30 210,-67 19,-15 30,-24 47,-37 91,-69 31,-48 71,-81 30,-24 49,-15 83,-109l-63 45c18,-45 66,-100 95,-142 24,-35 54,-114 84,-136l15 36c20,-9 20,-6 38,-16 -29,22 -72,48 -101,85 -44,57 1,20 -19,56 -9,18 -20,7 -42,54l113 -35c-74,66 -75,-10 -131,118 76,-21 323,-126 282,-226 51,-25 33,-15 63,-78 -71,15 -25,6 -78,34l54 -44c12,-10 26,-27 36,-38 -20,-40 39,-49 -35,-26 39,-36 72,-61 76,-147 -24,59 -140,171 -188,185 6,-95 101,-140 122,-178 45,-82 45,-9 60,-93 -38,13 -108,72 -144,101 -9,7 -14,12 -23,20 -2,2 -6,11 -7,8 -1,-3 -5,6 -7,9 76,-21 46,-8 61,3 -66,8 -121,46 -167,95l24 35c-49,24 -61,69 -96,115 23,-55 34,-50 40,-116 -34,18 1,-5 -28,15 27,-53 51,-23 92,-98 -58,16 -37,21 -98,34 36,-52 71,-44 115,-87l-97 16c45,-44 70,-32 129,-54 49,-19 81,-51 111,-90 -71,8 -69,19 -128,46l88 -51c-24,-17 12,-12 -30,-16 -7,-1 -35,8 -42,10 19,-28 16,20 10,-25 0,-1 -12,-25 -13,-27l127 -43c0,-1 2,1 2,4 1,4 5,10 6,12 1,1 3,5 4,6l13 12c1,1 6,5 8,7 -33,11 -33,-1 -58,36l407 -218 -199 57 177 -81c-76,-7 -111,18 -176,41 -48,78 -60,27 -83,99 -1,3 9,-1 -9,18 -10,11 -38,26 -47,31 6,-48 16,-21 14,-72 -2,-78 61,-133 137,-174 153,-83 239,-2 402,-48l-48 -17 313 -98c-38,-31 -32,-14 -71,-23 -71,-17 -105,-107 -97,-193 209,-135 46,-45 243,-129 25,-11 21,-11 27,-19 -141,-41 -575,258 -814,290 -311,42 -144,-47 -318,-2 26,-19 17,-8 34,-40 -62,-92 -163,-148 -74,-245 20,46 -9,-5 3,34l22 17c1,77 4,88 59,119 13,-24 -3,-435 16,-548l-45 0c52,-43 24,2 28,-61 -60,28 -46,37 -89,29 -40,-7 -27,30 -91,71l13 24c-3,12 -129,147 -201,179 -217,97 -108,102 -151,241 -7,24 -9,24 -16,35l8 -88 -150 340c-7,-88 78,-185 101,-278 58,-238 44,-227 254,-343 39,-21 57,-56 104,-103 26,-27 64,-67 100,-95 147,-114 112,-76 90,-442l-11 0c1,-6 2,-11 2,-17 6,1 13,3 24,5 -5,-46 -10,-93 -14,-143 0,-59 -5,-116 -15,-172l-2 -20c-9,-109 -28,-241 -28,-347 1,-442 -58,-406 666,-432 134,-5 801,-49 860,-26 26,10 42,26 52,45l26 60c1,2 5,6 7,9 82,-17 35,-45 110,-74 50,-20 349,100 413,118 139,41 1058,341 1108,390 70,69 42,188 0,278 -13,28 -19,30 -28,55 -12,33 -6,39 -23,75 -25,54 -36,87 -48,154l10 0zm-4007 4499c4,3 9,2 11,8 10,33 12,-7 41,37 32,49 13,30 -3,51 -32,-18 -41,-49 -50,-96zm98 -8l32 29c-30,-20 -10,2 -32,-29zm203 -558l19 -52c45,70 38,123 41,210 -29,-36 -51,-110 -59,-159zm0 0c-37,-10 -40,-58 -31,-97 7,-33 1,-9 16,-27 23,35 16,73 16,124zm-88 -135c8,-51 0,-43 30,-71 27,56 24,63 11,131l-14 -77 -27 18zm-10 -116l21 -8c2,22 10,18 0,45 -14,38 -24,28 -40,38l19 -75zm0 0l-16 14c-24,16 3,1 -32,18 12,-59 29,-68 60,-103 -5,44 -6,30 -13,71zm-75 -89c2,-28 -3,-33 6,-59 11,-30 14,-23 29,-39 13,56 11,60 -36,97zm34 -119l3 -56c29,-17 -17,-17 33,-17 1,0 5,1 7,1l24 15c-22,24 -35,41 -66,57zm171 -100c5,-20 -16,-3 21,-40 17,-17 25,-20 55,-25 -18,42 -31,47 -75,65zm347 -245c0,-1 31,-52 16,-4 -7,21 -17,20 -16,4zm-118 24c-40,56 -35,122 -120,130 -26,3 18,-44 -84,41 -26,22 -55,42 -82,58 31,34 18,31 -54,87l14 -27c1,-3 5,-8 6,-10 23,-52 -38,-40 76,-120 25,-18 33,-28 50,-47l-75 51c-3,2 -6,5 -9,6l-31 19c21,-60 36,-49 72,-91 -98,40 -28,37 -129,92 6,-42 9,-37 12,-68 -21,105 -53,73 -74,226 -2,12 -6,43 -8,47 -14,40 -9,23 -28,44 1,-148 40,-204 56,-318 -11,42 -28,84 -41,125 -32,103 -4,72 -30,139 -1,3 -4,7 -6,10 0,0 -42,-17 -20,-107 10,-39 17,-66 27,-113 14,-68 35,-161 90,-186l21 47c16,-53 58,-73 108,-94 -32,77 -52,29 -56,111 14,-13 12,-13 37,-21 -22,-2 -26,28 -12,-32 43,-32 56,-40 109,-63l15 22 28 -64c-36,23 -9,4 -46,22 -22,11 -38,19 -53,26l-12 -24c-33,9 -25,8 -59,14l28 -42c-42,9 -48,23 -85,44 17,-23 -2,0 20,-24l32 -36c-35,-17 -4,8 -22,-22l86 -2c24,-36 33,-29 75,-47 24,21 42,33 48,73 17,-15 23,-18 41,-31l14 20c4,-5 22,-15 26,-20l14 7c25,3 28,-15 54,-11l14 6c1,0 4,3 7,4 -11,36 -12,27 -17,71 28,-41 15,-31 31,-80 0,-1 17,-41 17,-41 19,-34 17,-24 36,-38l0 63 -39 111c-18,59 -11,62 -59,97 -20,-16 -7,4 -16,-32zm-332 -177c12,-20 -24,-12 42,-31l-42 31zm207 -85c57,-10 68,-23 123,-36 -46,82 -174,108 -232,77 3,-2 7,-9 8,-6l101 -34zm-263 -14c4,-7 -9,-38 37,-17 -20,19 -7,8 -37,17zm788 -59l-23 -3 20 -52 3 55zm-288 159l62 -232c32,40 19,-39 20,59l-26 87c-6,30 -11,62 -18,94 -15,65 -38,123 -60,172 -23,-28 -31,23 2,-76 10,-31 18,-66 21,-104zm83 23l-11 18c-25,58 -1,43 -50,85 13,-99 62,-192 60,-298l10 -16c4,-12 5,-23 8,-36 10,-47 -2,-25 23,-60 4,110 -31,206 -41,307zm-320 -110c-58,6 -94,25 -138,0 17,-18 -15,-9 44,-27 51,-16 147,-26 190,-57 -121,9 -202,79 -259,27l263 -66c37,-11 67,-19 100,-27 -19,32 -11,21 -33,38 59,8 16,-2 32,22 -17,10 -59,36 -90,49 -35,16 -73,24 -110,41zm-1279 -232l-2 118c-3,-11 -22,-52 -26,-64 -13,-41 -20,-35 27,-54zm65 -24l-12 128c-10,-74 -33,-111 12,-128zm1423 46c39,-4 35,-6 64,-7 -83,61 -385,175 -454,120 20,-57 -27,-11 57,-40l-69 0 -3 90c-35,-45 -35,-85 -22,-149 83,36 363,-20 414,-54 41,-3 27,-1 59,-12 2,-1 27,-11 27,-11 32,-2 14,3 26,10 -40,29 -58,32 -98,54zm-1354 -32c-4,-18 -9,-14 -5,-36 4,-23 9,-24 13,-33l6 37c-3,14 -8,21 -14,31zm1115 -36c39,-14 100,-41 143,-44 -30,35 -15,22 -63,39 -104,37 -68,11 -80,5zm-1045 -6c0,-11 -8,-4 1,-28 21,-56 2,-10 24,-34 -6,41 -2,32 -25,62zm779 1739c3,50 60,72 42,165 -64,-58 -204,-310 -245,-411l-135 -281c-73,-119 -27,-22 -82,-184 -83,-248 -355,-803 -207,-1071l21 0c46,-1 22,4 65,-25 31,-20 62,-35 101,-53 6,238 -17,272 89,554 59,159 150,306 224,456 107,218 347,537 316,687 -21,102 -112,112 -189,163zm741 -1485l-57 55 -29 70c-20,56 -15,41 -42,61l3 -45c13,-16 0,27 20,-33l38 -259c-3,-59 -32,-65 11,-47 13,-54 40,-102 61,-145l9 27 43 -71 -57 387zm-305 -312c20,-45 5,-34 61,-52 -34,63 -18,21 -61,52zm305 312c66,-98 20,-299 95,-399 -5,82 -23,214 -39,303 -9,50 -22,99 -38,143 -9,23 -16,39 -26,58 -22,41 -12,34 -42,47 22,-51 47,-91 51,-152zm57 -387l11 -61c5,9 13,3 8,28 -7,37 -17,29 -19,33zm224 154c-19,-25 -11,11 -13,-26l36 -100c-2,-1 -6,-6 -6,-4 0,2 -5,-3 -5,-3 -36,-25 24,26 -9,-6l32 -45c0,0 13,16 15,18 32,-73 31,-70 77,-116 -9,134 -5,126 -126,282zm-184 124c-43,-39 7,-229 21,-311 10,-53 4,-56 37,-94l-59 405zm240 -398c-13,53 -7,37 -41,60 21,-79 25,-62 70,-142 18,47 20,109 -13,102l-16 -19zm100 5c-10,-58 -14,-39 18,-66l-18 66zm-133 -32l32 -55c-5,26 2,15 -7,30l-24 25zm-395 91l132 -62c-19,65 -66,81 -124,105 -72,30 -116,58 -159,41 55,-44 66,-34 121,-73 -45,11 -34,12 -80,19 19,-49 11,-40 58,-62 31,-15 54,-28 84,-42 64,-30 103,-67 175,-87 -50,85 -53,78 -143,120 -10,5 -20,8 -28,13l-36 26zm362 -278c6,142 6,217 -19,351l-13 70c-11,22 -10,13 -22,26 13,-212 31,-142 16,-352 -8,-106 35,-94 38,-96zm-193 677c22,-13 7,7 14,-25 3,-13 2,-27 3,-41 66,-119 43,-461 126,-543 -8,110 -36,235 -44,363 42,26 -20,8 15,4l9 -4c-47,103 -6,-41 -44,120 -18,77 -45,153 -91,202l11 -76zm267 -620l21 9c-18,65 0,8 -27,36l7 -44zm0 0l-41 34c9,-75 25,-65 40,-118l20 26 -19 58zm-1 -84c-31,14 -8,-25 -24,10 1,-41 -6,-50 31,-59l-7 49zm-77 -118l1 113c-21,-74 -16,-41 -1,-113zm60 38l10 -54c12,6 25,0 5,36l-16 18zm391 -170l-13 44c-4,-10 -11,-2 -6,-25 8,-43 3,-7 19,-19zm-422 144c-7,-80 19,-149 57,-196l-57 196zm423 -213c-9,50 4,17 -19,51 -5,-16 -12,-6 -3,-32 11,-31 5,-8 22,-20zm-252 251c-20,-6 -14,-8 -14,13l-9 -18c-4,-35 -1,18 0,-28l-17 15c-35,16 11,13 -14,1 32,-85 28,-85 69,-125l14 -53 55 -45c8,-56 31,-59 74,-96l11 31 17 23c-30,36 -10,18 -43,42l16 22c1,1 3,5 4,7 -24,33 -12,74 -53,163 -26,56 -51,94 -68,156l27 -45c11,-18 10,-16 26,-35 -1,89 -50,134 -85,188 -5,-23 7,-27 -7,-56 -7,20 -7,28 -21,52 -24,42 -15,23 -35,38 1,-21 8,-63 8,-64 -2,-36 5,7 -18,-36 28,-35 55,-94 64,-152zm-190 -256c8,-29 20,-42 35,-59l-35 59zm416 -54c-2,-46 -3,-23 21,-45l-21 45zm-376 70c25,-63 35,-130 93,-147 -6,39 -70,116 -93,147zm1154 -135c9,-14 -6,-6 18,-21l60 -23c121,-54 72,-20 84,-13 -37,35 -103,64 -163,58zm-830 6c3,-24 -10,-17 26,-45 7,-6 33,-20 44,-26 -17,23 -45,58 -71,71zm-358 -112c-27,43 36,14 -38,37 33,-31 -36,0 38,-37zm1188 107c-27,18 56,18 -49,15l64 27 -240 15 -29 -59c-9,10 -23,-5 -21,62 0,0 -21,-43 34,11 -27,15 -48,18 -84,27 5,-41 2,-25 9,-60l-34 29c-2,-2 -4,-8 -6,-10 -2,-3 -6,-13 -7,-18 -21,96 -13,35 -30,47 -2,-4 -4,-8 -5,-11l-9 -37c-9,-38 5,-10 -14,-39 1,133 7,109 -29,106 -17,41 10,14 -40,43 -17,-21 -29,35 -4,-58 -51,83 -25,52 -65,64l-73 50 82 -250c-1,-1 -3,-2 -3,-2l5 -57c418,1 348,-84 501,-37 54,17 93,20 125,54 -31,20 -273,108 -297,-21 -76,107 137,98 218,106zm-613 -90l46 -16c-20,32 -50,70 -53,88 -10,68 9,18 -22,85 45,63 -93,200 -142,229 -1,1 -5,3 -6,3l-21 21c10,-51 5,-68 51,-66l15 -66c-1,-3 -7,2 -10,5 10,-55 27,-49 38,-104 -8,12 -2,6 -13,17 -14,15 -14,12 -23,18 5,-60 28,-137 60,-174l92 -118c3,2 8,5 10,6l37 27 -60 46zm-363 271c-52,37 -82,129 -118,200 4,-116 67,-147 89,-243 -60,61 -46,96 -95,149 -21,-79 31,-57 42,-136 -22,-17 -4,-38 -3,-100 44,-13 27,-15 74,-30 -16,42 -9,22 -30,60l52 -59c70,-66 20,0 54,-63 -26,-12 -10,-4 -47,-14l-28 -8c-10,-2 -10,-18 -40,15 10,-32 3,-23 51,-44 -2,4 1,7 2,8l12 15c75,-48 85,-12 95,-78 11,29 -45,35 55,20 22,-3 42,-12 75,-16 -34,21 -86,31 -138,38 40,42 56,19 -36,73 2,2 6,6 7,7l21 86c-2,2 -4,5 -6,7 -42,46 -62,43 -86,110zm-203 -331c-14,16 -43,21 -8,-10 26,-23 25,-11 8,10zm431 -53c-26,16 -53,21 -96,12l96 -12zm-376 65l-27 -13c64,-52 138,-73 243,-66 -75,19 -151,17 -216,79zm17 -67c10,-19 -25,-12 44,-39 81,-32 123,-18 187,-6 -53,21 -143,11 -231,45zm668 -125c-4,-24 9,-22 35,-29l-35 29zm175 -120c31,-12 7,-14 42,-30l-42 30zm209 -190c-16,28 6,10 -29,25 -3,1 -21,2 -25,3 19,-29 -16,-10 31,-32 43,-21 2,-4 23,5zm-475 181c-20,-26 -60,-88 -50,-134 9,-43 70,-65 110,-83 52,-24 222,-97 275,-77 98,36 82,184 -26,229 -84,35 -214,74 -309,66zm-1294 -447c27,-45 27,-32 89,-52 -37,37 -29,43 -89,52zm613 407c30,-134 33,-1379 45,-1642 7,-165 -35,-386 51,-498 52,-4 318,19 330,60 1,3 4,7 4,11 16,79 -28,76 -55,93 -52,33 -52,93 -30,140 -50,32 -105,29 -87,133 39,33 53,32 108,29 -10,58 -37,92 -58,130 39,62 36,-30 32,83 -53,78 -97,26 -91,180 -141,61 -122,158 -61,189l85 34 -23 138c-44,23 -63,28 -96,66 -11,32 1,99 69,125 -6,94 -3,144 -55,211 -60,78 -31,107 3,167l-42 320c-41,27 -75,29 -128,30zm348 -109c25,-160 349,-1313 421,-1585 24,-90 46,-172 70,-263l71 -250c107,-26 137,5 219,32 63,20 128,24 177,62l-29 92c-220,51 -94,135 -78,192 -61,-18 -102,-57 -168,1 1,40 -13,133 77,124 97,-9 8,-11 66,-27 -22,21 -135,359 -151,415 -187,-58 -243,127 -63,173l-85 265c-54,-4 -66,-14 -101,21 -56,57 -48,104 18,146l18 12c-13,56 -32,97 -54,157 -44,124 -20,78 -93,102 -29,84 -40,80 44,160 102,-218 391,-1152 516,-1487 47,-126 114,-421 222,-446 38,-9 728,222 774,239l569 192c260,70 142,221 101,347 -25,77 -47,151 -72,234 -44,149 -98,294 -147,450 -98,312 -180,618 -286,923 -166,478 -98,536 -652,341 -122,-43 -832,-286 -910,-274l118 56c-84,21 -245,17 -330,-18 202,-42 309,-150 417,-203 47,19 92,56 156,21 151,-81 11,-190 3,-219 91,4 -13,129 220,104 33,-43 61,-54 69,-124 -44,-85 -72,-108 -188,-96l-50 39c-4,-66 42,-99 83,-179 -37,-34 -48,-37 -109,-38 -3,36 -3,69 -7,104 0,1 -9,46 -9,46 -9,30 -8,20 -16,34 -88,-125 -52,-70 -193,-80 -283,-20 -477,160 -640,203zm-5 -1204c167,-1064 65,-926 503,-842 7,83 -32,158 -73,202 -28,31 -163,139 -87,196l52 33 -140 531 -75 5c-113,121 -11,234 -22,352l-69 264c-35,146 -106,31 -127,167 -11,72 -2,132 35,167 -25,142 -41,184 -184,208l187 -1283zm570 -926c-24,55 -12,54 -92,46 -72,-7 -72,-18 -90,-32 51,-31 130,-35 182,-14zm-1145 531c-33,-55 -34,-233 -25,-307 13,-117 20,-187 148,-189l586 -31c2,0 8,4 9,1 1,-3 6,1 9,2 13,56 -13,26 -47,106 -96,-5 -295,-68 -360,-33 -61,35 -32,44 -65,133 -17,45 -44,90 -67,127 -64,105 -74,193 64,213l-30 98c2,2 6,4 8,6 1,2 6,5 7,7 26,37 15,90 14,154 -5,169 11,169 -44,194 -103,47 -47,163 -17,243 18,49 20,45 45,77l-16 292 -51 28c-17,105 -7,148 56,221l-13 376c-67,-3 -81,2 -125,-30l-91 -1667c50,37 36,18 51,82 6,25 6,19 54,31 -6,-114 -1,-58 19,-139 0,-3 -36,-80 -65,-99 -41,34 -31,50 -54,103zm1380 -497c-109,-32 -71,-8 -101,-58 150,-5 217,-19 216,81 -57,-4 -65,-8 -115,-23z"/> <path class="fil0" d="M7283 6990c13,38 5,8 2,44 -23,-21 -49,-33 -24,-76 17,21 0,-31 22,33zm-60 -109c-20,-90 -59,-168 -172,-122 -90,37 -98,138 -39,207 100,26 120,-4 185,-44 -20,135 -143,-43 -140,217 107,115 262,82 252,-78 47,16 81,41 124,12 30,-20 66,-60 59,-113 -25,-187 -215,-60 -215,-60 16,-80 72,-101 99,-172l-102 -27c-3,75 -8,128 -50,181z"/> <path class="fil0" d="M7079 5192c-24,-31 -14,-11 -28,-47 39,20 26,-27 28,47zm-43 -146l1 88c-99,-54 -200,0 -212,89 -6,46 35,84 70,99 59,25 102,-7 139,-13 -12,89 -66,107 -88,161 33,27 77,37 120,40 3,-32 1,-82 7,-121l44 -89c48,281 328,43 175,-67 -36,-26 -69,-28 -101,-13 -39,18 1,9 -40,25l-18 -37c44,-37 134,-32 156,-94 -3,-107 -56,-164 -166,-152l-86 85z"/> <path class="fil0" d="M6817 5923c-62,-109 -81,-193 -248,-55 0,170 107,170 224,116 -16,70 -9,20 -67,61 -13,9 -47,49 -59,63 -21,215 262,176 229,-16 -40,-42 -78,-29 -34,-91 7,16 22,90 99,116 195,64 170,-282 -18,-202 -27,12 -29,21 -33,24 -27,17 -5,10 -44,19 9,-58 10,-40 46,-85 23,-30 39,-55 54,-84 -29,-28 -74,-48 -114,-47 -8,52 -2,137 -36,181z"/> <path class="fil0" d="M7494 6144c-32,-53 -55,-108 -136,-105 -82,3 -106,62 -110,143 31,31 39,63 96,66 72,3 58,-35 121,-40l-14 73c-258,79 -48,295 58,200 30,-27 51,-75 34,-128 -22,-69 -73,-42 -35,-119 56,43 39,82 85,104 85,21 121,-7 156,-64 5,-79 -33,-115 -86,-138l-131 42c10,-74 38,-92 76,-140 16,-21 6,-8 19,-28l-45 -30c-26,-10 -36,-10 -62,-15l-26 178z"/> <path class="fil0" d="M7719 5316l2 56c37,35 60,27 26,83l-12 -16c-1,-3 -8,-15 -10,-18 -122,-231 -348,88 -131,121 36,5 45,7 79,-8l64 -43c-5,89 -64,149 -102,214l113 36c7,-101 -19,-158 40,-223 18,31 21,102 69,126 140,23 177,-68 145,-181 -30,-11 -57,-28 -99,-19 -7,2 -43,19 -52,21 -57,13 -22,8 -45,-13 54,-51 146,-14 130,-164 -22,-26 -62,-82 -116,-76 -38,4 -104,58 -101,104z"/> <path class="fil0" d="M4238 8493c-11,12 -10,12 -25,24 -21,17 19,-8 -24,5l49 -29zm-45 -11c-8,11 -2,8 -21,23 -23,19 23,-8 -24,11 14,-19 -8,-19 45,-35zm126 -54l-31 38c-16,12 -22,13 -43,23 22,-43 -8,-14 37,-44 1,-1 35,-17 37,-17zm-126 54l50 -58 -62 19c-6,17 9,17 -52,60 -12,8 -23,14 -33,21 -25,19 -13,7 -26,30l1 54c42,-23 53,-46 113,-74 -14,23 -4,11 -21,30 -41,46 -81,57 -96,69 -28,23 -14,15 -22,33l12 27c24,0 29,4 48,-9 43,-29 6,4 19,-35 -51,9 -11,7 -27,-18 30,-10 26,-11 56,-25 17,-31 0,-10 30,-37 19,-17 26,-21 53,-31 10,-25 -17,-1 24,-32 28,-21 9,-4 30,-11 10,-18 -1,-6 18,-24 32,-31 29,-4 49,-53l-38 8c17,-40 103,-108 138,-123l-27 -40c-53,34 -115,107 -181,138 58,46 28,-28 21,23 0,1 -15,16 -17,17 -23,21 -32,28 -61,39z"/> <path class="fil0" d="M4324 8289c-11,14 9,9 -34,33 15,-47 -15,-19 34,-33zm-143 153c12,-30 -6,-2 14,-27l129 -126c25,-37 49,-68 101,-84 -7,10 -23,41 -24,42l51 -42 -78 -80c-89,85 -30,38 -74,90 -99,118 51,22 -66,110 -41,31 -78,54 -118,93 -26,25 -24,22 -52,45 -40,32 -29,16 -31,55 58,-1 69,-52 148,-77z"/> <path class="fil0" d="M4267 9636c21,61 108,36 117,188 -13,-10 -6,-9 -31,-13 5,-38 -3,-43 -34,-61 -26,46 -2,24 10,77l-103 -150c24,92 73,259 180,214 42,-116 -43,-302 -139,-255z"/> <path class="fil0" d="M6695 5089c-57,-2 -73,3 -78,61 37,23 46,10 79,28 -18,35 -23,34 -38,75l48 7c17,-32 11,-24 11,-72 64,11 65,27 97,-24 -15,-39 -23,-61 -73,-36 7,-48 20,-11 29,-51 11,-45 -19,-45 -55,-49 -19,33 -14,16 -21,62z"/> <path class="fil0" d="M5568 5091c48,-43 53,-169 31,-224l-60 -25c-17,33 -85,240 29,249z"/> <path class="fil0" d="M5207 4975c-22,-47 -19,-31 2,-73 15,7 38,7 36,39 -3,56 -19,27 -38,34zm-15 -145c-4,-44 10,-20 15,-26 46,24 36,23 0,54 -15,-15 -12,2 -15,-28zm57 180c45,-50 40,-75 8,-124l5 -90c-161,-85 -99,80 -99,80 7,62 -56,142 85,135z"/> <path class="fil0" d="M6322 4894c-13,-54 -18,-55 23,-79 4,5 30,-6 10,51 -7,19 -17,21 -33,28zm-50 -8l72 74 -26 24 -53 -38c-69,121 161,121 132,-129l-51 -41c-49,18 -70,48 -75,110z"/> <path class="fil0" d="M7623 6969c-32,-21 -48,-41 -91,-6 -1,50 16,35 64,75 -27,40 -52,77 24,83 41,-66 -3,-39 14,-82 41,-17 -4,26 72,3 16,-61 -14,-48 -51,-73 22,-57 20,-19 27,-63l-35 -12 -26 74z"/> <path class="fil0" d="M6181 5150c36,39 15,11 57,28l-25 71 48 6 20 -60 62 -12c-5,-98 3,-18 -26,-61 -23,-34 -11,-36 -28,-67 -65,8 -14,-12 -60,36 -33,34 -31,16 -48,59z"/> <path class="fil0" d="M5806 5163l38 56c-12,47 -20,28 -21,78l42 -2 8 -76c31,-10 33,-13 52,-29 4,-65 -10,-95 -29,-147 -34,33 -67,74 -91,120z"/> <path class="fil0" d="M5507 5243c-47,-15 -55,-15 -75,31 57,47 41,5 74,28l-24 82 57 -14 -9 -73c69,-13 55,10 62,-51l-60 -14 2 -84c-106,1 -51,61 -27,94z"/> <path class="fil0" d="M6805 4883c0,71 10,42 -30,59 -16,-37 -6,-38 30,-59zm-62 86l60 9c96,-78 15,-117 8,-131 -19,-36 1,-33 8,-43 50,26 -1,17 49,35 2,-37 -42,-154 -123,29 -26,58 -21,47 -2,101z"/> <path class="fil0" d="M4650 8245c63,-8 240,-155 265,-207 -38,-7 -10,8 -30,-14l72 -125 -37 46c-8,12 -17,30 -25,45 -42,72 -175,186 -247,216l2 39z"/> <path class="fil0" d="M7538 7270c-38,-22 -40,-46 10,-76 15,51 25,37 -10,76zm-67 46c-18,54 -11,46 39,65 45,-31 53,-42 73,-104 23,-73 16,-98 -44,-110 -41,26 -55,44 -52,108 41,28 28,2 47,41l-10 27c-45,-4 -28,2 -52,-27z"/> <path class="fil0" d="M5885 4972c8,-41 -3,-28 29,-62 70,72 -21,61 -29,62zm-17 24l60 3 39 -52c-34,-119 -74,3 -67,-119 81,11 3,-5 68,33 -10,-169 -170,5 -100,135z"/> <path class="fil0" d="M3610 10180c-160,-175 -43,-126 -133,-178 -10,57 79,147 109,187l123 179c27,-43 -66,-154 -98,-189z"/> <path class="fil0" d="M4461 7135c48,-59 156,-301 169,-397 -3,4 -7,4 -9,10l-87 186c-36,82 -64,98 -72,201z"/> <path class="fil0" d="M4614 7403c-22,-49 -13,-8 -16,-57 -169,172 -96,135 -153,208 -25,33 -27,32 -44,69 54,-29 146,-181 181,-206 26,-19 -1,-2 31,-13z"/> <path class="fil0" d="M4513 8875c44,-11 9,43 4,52l49 -11c14,-23 -17,-8 30,-30 5,10 10,1 10,27 0,25 -4,22 -10,41 50,-2 45,3 105,1 -2,-3 -5,-8 -7,-10l-15 -32c-22,13 -12,9 -47,14l33 -99c-2,3 -4,7 -5,9 -1,2 -4,7 -5,9l-15 33c-88,-28 -24,-1 -77,14 -49,14 -8,1 -27,-6 50,-77 52,-16 89,-85 -38,13 3,-7 -42,16 -2,1 -21,13 -25,16 -10,7 -34,31 -46,42z"/> <path class="fil0" d="M5457 5098l13 -18c17,-38 33,-189 4,-230 -40,42 -39,205 -17,248z"/> <path class="fil0" d="M6075 6844c59,26 220,-26 242,-41 44,-30 10,-6 33,-35 -104,13 -71,39 -214,52 -70,6 -31,-12 -61,24z"/> <path class="fil0" d="M3650 10070c-48,-61 4,-54 -52,-91l-10 20c-1,3 -6,16 -7,20l18 56c10,-12 5,-36 17,-2 13,36 12,129 47,53 19,35 -9,5 27,33 5,-58 -12,-54 -40,-89z"/> <path class="fil0" d="M5052 8605c10,-12 6,5 20,-34l52 -337c-26,39 -19,32 -27,82 -6,34 -10,59 -17,94 -9,47 -25,144 -27,194z"/> <path class="fil0" d="M4821 7192c0,0 -57,61 -65,24 -1,-4 -3,-5 -4,-8 -16,36 -25,39 -53,72 -26,30 -17,31 -54,55 22,10 20,10 33,21 72,-102 111,-116 144,-164z"/> <path class="fil0" d="M4821 7192c34,-23 171,-121 180,-152 -7,-3 10,-35 -42,12l-139 139z"/> <path class="fil0" d="M4179 8734c37,-32 78,-65 115,-94 -19,-12 -5,-17 -51,3l6 -36 -71 127z"/> <polygon class="fil0" points="4153,8607 4124,8650 4167,8657 4233,8564 "/> <path class="fil0" d="M4319 8651c-19,10 -55,33 -67,44 -32,26 -28,30 -17,73 100,-55 11,2 29,-49l55 -67z"/> <path class="fil0" d="M4873 8370c-60,10 -101,30 -156,41 -56,11 -117,10 -163,30 86,-3 267,-35 318,-71z"/> <path class="fil0" d="M4236 8539l-3 25c38,4 27,0 17,43l63 -99 -23 -12c-9,46 2,24 -54,43z"/> <path class="fil0" d="M5637 7594c8,24 12,26 14,29 53,93 -21,-61 14,24 33,-41 22,-30 20,-84l-47 31z"/> <path class="fil0" d="M5595 7595c0,63 -3,11 18,33 18,-60 12,-23 23,-34l28 -68 -69 69z"/> <path class="fil0" d="M4194 8926c9,-12 6,1 14,-26 1,-4 3,-18 4,-23 4,-21 7,-37 10,-65 -18,25 -45,67 -28,114z"/> <path class="fil0" d="M4107 8751c13,-11 9,12 31,-33 15,-30 3,-40 0,-47 -34,38 -24,13 -31,79z"/> <path class="fil0" d="M4319 8651l29 -3 29 -24 12 -29c-35,13 -51,17 -70,55z"/> <path class="fil0" d="M5581 7735c2,-3 6,-10 7,-8 1,3 7,-8 14,-15 13,-13 12,-12 22,-20l2 -43c-10,10 -10,0 -28,31 -9,15 -13,34 -18,54z"/> <path class="fil0" d="M4139 8858c34,-76 -3,-66 66,-97l-26 -27c-20,31 -34,76 -40,124z"/> <path class="fil0" d="M5234 7788c-45,26 -82,55 -125,81 35,-7 39,-11 65,-29 11,-8 24,-16 32,-23l22 -21c1,-2 4,-6 6,-8z"/> <path class="fil0" d="M5624 7692l-1 43c8,-10 8,-4 22,-33 13,-27 11,-26 19,-55 -13,14 -8,11 -20,24 -21,24 -7,9 -21,21z"/> <path class="fil0" d="M5664 7497l1 29c10,-8 9,-6 22,-22 1,-1 13,-19 18,-24 20,-24 26,-23 43,-49 -47,28 -13,20 -64,57l-20 9z"/> <path class="fil0" d="M4763 8791c-28,44 -38,59 -34,116 12,-56 26,-57 34,-116z"/> <path class="fil0" d="M6135 7467l1 -91c-14,19 -25,34 -35,52 1,0 0,4 22,-7l12 47z"/> <path class="fil0" d="M4601 8122c49,-25 61,-48 94,-88 -31,20 -76,66 -94,88z"/> <path class="fil0" d="M4512 8733l68 -35 -38 -7c-11,12 -21,24 -31,41z"/> <path class="fil0" d="M5579 7498l30 -30c15,-18 15,-20 28,-43 -39,25 -35,24 -58,73z"/> <path class="fil0" d="M3735 10275c-20,-49 -41,-54 -62,-92 12,33 33,71 62,92z"/> <path class="fil0" d="M4833 7872c-32,47 -70,80 -99,125 25,-20 35,-28 55,-57 19,-28 28,-41 44,-67z"/> <path class="fil0" d="M5144 7908c57,-11 59,-17 93,-51l-93 51z"/> <path class="fil0" d="M4375 8649l-27 -1 -11 25c-32,65 6,-4 -15,24 4,-3 10,-5 13,-7l40 -41z"/> <path class="fil0" d="M4652 8177c23,-8 20,-5 37,-18 15,-12 10,-13 17,-24 -18,7 -22,7 -36,18 -16,12 -11,13 -18,23z"/> <path class="fil0" d="M4721 8707c-28,29 -35,32 -39,85l39 -85z"/> <path class="fil0" d="M4734 8110c51,-22 18,-3 29,-30l-28 1 -1 29z"/> <path class="fil0" d="M4652 8177l-28 -1c-11,19 -1,9 -25,32 -5,5 -21,18 -25,21l78 -53z"/> <path class="fil0" d="M4789 8843c8,-11 7,6 21,-33 10,-27 5,-20 8,-47l-29 80z"/> <path class="fil0" d="M4703 7220l116 -119c-41,35 -77,70 -116,119z"/> <path class="fil0" d="M4761 8496c18,-2 21,0 38,-6 36,-14 22,-12 33,-22l-71 28z"/> <path class="fil0" d="M4636 7297c32,-23 38,-20 59,-63l-59 63z"/> <polygon class="fil0" points="4553,8940 4595,8922 4566,8916 "/> <path class="fil0" d="M3735 10275l42 45c-11,-28 3,-8 -15,-28 -24,-28 -2,-2 -27,-17z"/> <path class="fil0" d="M5623 7735l-73 157c3,-3 7,-11 9,-9l64 -148z"/> <path class="fil0" d="M5972 7271c-46,39 -26,15 -36,52l36 -52z"/> <path class="fil0" d="M4861 7900l56 -95c-26,33 -38,52 -56,95z"/> <path class="fil0" d="M4583 8733l35 -19c0,0 -3,-11 -19,-1 -24,15 -6,4 -17,20z"/> <path class="fil0" d="M5070 6912l-69 55c14,-7 21,-12 31,-20 25,-20 18,-13 38,-36z"/> <path class="fil0" d="M4069 8554l-30 13c3,2 7,5 8,5 70,4 4,27 22,-18z"/> <path class="fil0" d="M4614 7403l4 23 30 -51c-33,56 -4,14 -34,28z"/> <path class="fil0" d="M4401 8248c-34,11 -21,3 -41,30l41 -30z"/> <path class="fil0" d="M4848 7982l-42 59c26,-28 25,-19 42,-59z"/> <path class="fil0" d="M4875 7943l54 -71c-18,21 -38,39 -54,71z"/> <path class="fil0" d="M5083 6959l27 -21c-34,14 -26,-6 -27,21z"/> <path class="fil0" d="M4543 8761c32,-10 -6,12 19,-7 18,-13 14,-12 20,-20l-40 27z"/> <path class="fil0" d="M4706 8135l28 -26c-48,23 -13,5 -28,26z"/> <path class="fil0" d="M4735 8080c9,-28 -14,0 17,-43l-17 43z"/> <path class="fil0" d="M4833 7872l23 -37c-31,31 -7,-3 -23,37z"/> <path class="fil0" d="M5918 7455c-17,16 -18,14 -34,42l34 -42z"/> <path class="fil0" d="M4763 8791l24 -67c-15,39 -15,25 -24,67z"/> <path class="fil0" d="M5125 6221c-4,5 -19,21 -20,21 -14,16 -9,6 -16,25 12,-22 17,-18 36,-46z"/> <path class="fil0" d="M5095 7761l52 -36c-13,7 -4,0 -20,12 -2,1 -6,4 -8,5l-24 19z"/> <path class="fil0" d="M4623 8176c26,-48 29,-29 55,-71l-55 71z"/> <path class="fil0" d="M4939 7627c1,-28 12,-27 29,-48 -27,23 -22,16 -29,48z"/> <path class="fil0" d="M5153 7441c-38,23 -72,48 -105,63 31,-10 30,-16 52,-31 18,-12 35,-21 53,-32z"/> <polygon class="fil0" points="5290,7679 5235,7716 "/> <polygon class="fil0" points="4402,8454 4380,8498 "/> <polygon class="fil0" points="5142,7673 5192,7639 "/> <polygon class="fil0" points="6055,7450 6079,7400 "/> <polygon class="fil0" points="5918,7455 5943,7427 "/> <polygon class="fil0" points="4790,7995 4833,7939 "/> <polygon class="fil0" points="4848,7982 4875,7943 "/> <polygon class="fil0" points="5526,7512 5567,7442 "/> <polygon class="fil0" points="4708,8831 4744,8732 "/> <polygon class="fil0" points="4680,8913 4708,8831 "/> <polygon class="fil0" points="5015,7006 5060,6974 "/> <polygon class="fil0" points="5137,7498 5099,7522 "/> <polygon class="fil0" points="5637,7425 5661,7403 "/> <polygon class="fil0" points="4790,7995 4765,8026 "/> <polygon class="fil0" points="4833,7939 4861,7900 "/> <polygon class="fil0" points="5178,7756 5220,7736 "/> <polygon class="fil0" points="4763,8080 4791,8049 "/> <polygon class="fil0" points="4958,7900 5000,7831 "/> <polygon class="fil0" points="4958,7830 5013,7731 "/> <polygon class="fil0" points="4877,8290 4941,8261 "/> <polygon class="fil0" points="5070,6912 5111,6884 "/> <polygon class="fil0" points="4929,7872 4958,7830 "/> <polygon class="fil0" points="4917,7805 4938,7764 "/> <polygon class="fil0" points="5889,7423 5927,7377 "/> </g> </g> </svg>